<?xml version="1.0" encoding="utf-8"?>
<!-- Generator: Adobe Illustrator 16.0.4, SVG Export Plug-In . SVG Version: 6.00 Build 0)  -->
<!DOCTYPE svg PUBLIC "-//W3C//DTD SVG 1.1//EN" "http://www.w3.org/Graphics/SVG/1.1/DTD/svg11.dtd">
<svg version="1.1" id="Ebene_1" xmlns="http://www.w3.org/2000/svg" xmlns:xlink="http://www.w3.org/1999/xlink" x="0px" y="0px"
	 width="38px" height="44px" viewBox="0 0 38 44" enable-background="new 0 0 38 44" xml:space="preserve">
<g>
	<path fill="#B5B6BA" d="M28.974,9.11c-5.508-5.508-14.415-5.508-19.922,0c-5.56,5.56-5.56,14.465-0.051,19.975l9.986,9.936
		l9.986-9.986C34.481,23.524,34.532,14.62,28.974,9.11L28.974,9.11z"/>
	<path opacity="0.2" fill="#FFFFFF" d="M19.001,30.091L19.001,30.091c-6.092,0-11.097-4.957-11.097-11.047
		c0-6.137,5.005-11.095,11.097-11.095c6.137,0,11.094,4.958,11.094,11.095C30.095,25.134,25.138,30.091,19.001,30.091L19.001,30.091
		z"/>
	
		<polyline fill="none" stroke="#FFFFFF" stroke-width="3" stroke-linecap="round" stroke-linejoin="round" stroke-miterlimit="10" points="
		14.166,18.258 19.224,22.925 23.833,18.258 	"/>
</g>
</svg>
