<?xml version="1.0" encoding="utf-8"?>
<!-- Generator: Adobe Illustrator 16.0.4, SVG Export Plug-In . SVG Version: 6.00 Build 0)  -->
<!DOCTYPE svg PUBLIC "-//W3C//DTD SVG 1.1//EN" "http://www.w3.org/Graphics/SVG/1.1/DTD/svg11.dtd">
<svg version="1.1" id="Ebene_1" xmlns="http://www.w3.org/2000/svg" xmlns:xlink="http://www.w3.org/1999/xlink" x="0px" y="0px"
	 width="75px" height="87px" viewBox="0 0 38 44" enable-background="new 0 0 38 44" xml:space="preserve">
<g>
	<path fill="#B5B6BA" d="M28.975,9.11c-5.508-5.508-14.416-5.508-19.922,0C3.493,14.67,3.493,23.575,9,29.085l9.987,9.936
		l9.987-9.986C34.482,23.524,34.533,14.62,28.975,9.11L28.975,9.11z"/>
	<path opacity="0.2" fill="#FFFFFF" d="M19.001,30.091L19.001,30.091c-6.091,0-11.097-4.957-11.097-11.047
		c0-6.137,5.005-11.095,11.097-11.095c6.137,0,11.096,4.958,11.096,11.095C30.097,25.134,25.138,30.091,19.001,30.091L19.001,30.091
		z"/>
	
		<line fill="none" stroke="#FFFFFF" stroke-width="3" stroke-linecap="round" stroke-miterlimit="10" x1="11.833" y1="19.258" x2="26.167" y2="19.258"/>
</g>
</svg>
