<?xml version="1.0" encoding="utf-8"?>
<!-- Generator: Adobe Illustrator 16.0.4, SVG Export Plug-In . SVG Version: 6.00 Build 0)  -->
<!DOCTYPE svg PUBLIC "-//W3C//DTD SVG 1.1//EN" "http://www.w3.org/Graphics/SVG/1.1/DTD/svg11.dtd">
<svg version="1.1" id="Ebene_1" xmlns="http://www.w3.org/2000/svg" xmlns:xlink="http://www.w3.org/1999/xlink" x="0px" y="0px"
	 width="25px" height="29px" viewBox="0 0 38 44" enable-background="new 0 0 38 44" xml:space="preserve">
<g>
	<path fill="#DD2A17" d="M28.975,9.11c-5.508-5.508-14.416-5.508-19.922,0c-5.56,5.56-5.56,14.466-0.051,19.976l9.986,9.936
		l9.987-9.986C34.482,23.525,34.533,14.62,28.975,9.11L28.975,9.11z"/>
	<path opacity="0.2" fill="#FFFFFF" d="M19,30.092L19,30.092c-6.092,0-11.096-4.957-11.096-11.047
		c0-6.138,5.004-11.095,11.096-11.095c6.136,0,11.095,4.958,11.095,11.095C30.096,25.135,25.137,30.092,19,30.092L19,30.092z"/>
	
		<polyline fill="none" stroke="#FFFFFF" stroke-width="3" stroke-linecap="round" stroke-linejoin="round" stroke-miterlimit="10" points="
		23.834,20.925 18.776,16.258 14.167,20.925 	"/>
</g>
</svg>
